<!--
  Copyright (C) 2024 Joey Parrish

  Letterboxed clone by Joey Parrish, forked from Sivan Mehta, under GPLv3.

  This program is free software: you can redistribute it and/or modify it under
  the terms of the GNU General Public License as published by the Free Software
  Foundation, either version 3 of the License, or (at your option) any later
  version.

  This program is distributed in the hope that it will be useful, but WITHOUT
  ANY WARRANTY; without even the implied warranty of MERCHANTABILITY or FITNESS
  FOR A PARTICULAR PURPOSE. See the GNU General Public License for more
  details.

  You should have received a copy of the GNU General Public License along with
  this program. If not, see <https://www.gnu.org/licenses/>.
-->
<svg id="letter-box" xmlns="http://www.w3.org/2000/svg" viewBox="75 75 450 450">
  <g stroke-width="15">
    <rect x="100" y="100" width="400" height="400"
          fill="white" stroke="black" />
    <g stroke="red" stroke-dasharray="4% 4%">
      <path d="M 500 425 L 100 300 Z" />
      <path d="M 100 300 L 500 175 Z" />
      <path d="M 500 175 L 300 500 Z" />
      <path d="M 300 500 L 175 100 Z" />
      <path d="M 175 100 L 500 425 Z" />
    </g>
    <g fill="white" stroke="black">
      <circle cx="175" cy="100" r="12" stroke="#red" />
      <circle cx="300" cy="100" r="12" />
      <circle cx="425" cy="100" r="12" />
      <circle cx="100" cy="175" r="12" />
      <circle cx="100" cy="300" r="12" stroke="#red" />
      <circle cx="100" cy="425" r="12" />
      <circle cx="500" cy="175" r="12" stroke="#red" />
      <circle cx="500" cy="300" r="12" />
      <circle cx="500" cy="425" r="12" stroke="#red" fill="black" />
      <circle cx="175" cy="500" r="12" />
      <circle cx="300" cy="500" r="12" stroke="#red" />
      <circle cx="425" cy="500" r="12" />
    </g>
  </g>
</svg>
