<svg
  xmlns="http://www.w3.org/2000/svg"
  viewBox="0 0 600 600">

  <style>
    path, circle, rect {
      stroke-width: 5px;
      stroke: black;
    }

    .active {
      stroke: #faa6a4;
    }

    path.active {
      stroke-dasharray: 4% 4%;
    }

    path.past {
      stroke: #eacecb;
    }

    circle {
      fill: white;
    }

    circle.past {
      fill: #eacecb;
    }

    circle.lead {
      fill: black;
    }

    text {
      font-size: 60px;
      text-anchor: middle;
      font-family: Arial, Helvetica, sans-serif;
      fill: white;
      stroke-width: 0;
    }

    text.past,text.active {
      fill: black;
    }

    text.active {
      font-weight: bold;
    }
  </style>

  <rect
    x="100"
    y= "100"
    width="400"
    height="400"
    fill="rgba(255,255,255)"
    stroke-width="5"/>

  <!-- Paths -->
    <!-- S - Q active guess -->
    <path d="M 300 100 L 100 175 Z" class="active" />
    <!-- Q - U active guess -->
    <path d="M 100 175 L 500 300 Z" class="active" />
    <!-- U - A active guess -->
    <path d="M 500 300 L 100 300 Z" class="active" />
    <!-- A - R active guess -->
    <path d="M 100 300 L 175 500 Z" class="active" />
    <!-- R - E active guess -->
    <path d="M 175 500 L 425 100 Z" class="active" />


  <!-- Circle-->
  <!-- Top -->
    <!-- Used Circle -->
    <text x="175" y="75">Y</text>
    <circle cx="175" cy="100" r="12" />

    <!-- Active (middle) Circle-->
    <text x="300" y="75" class="active">S</text>
    <circle cx="300" cy="100" r="12" fill="white" class="active"/>

    <!-- Active (end) Circle -->
    <text x="425" y="75" class="active lead">E</text>
    <circle cx="425" cy="100" r="12" fill="#black" class="active lead"/>

  <!-- Left -->
    <text x="60" y="195" class="active">Q</text>
    <circle cx="100" cy="175" r="12" class="active"/>

    <!-- Active (middle) Circle-->
    <text x="60" y="320" class="active">A</text>
    <circle cx="100" cy="300" r="12" class="active"/>

    <!-- Active (end) Circle -->
    <text x="60" y="445" fill="white">J</text>
    <circle cx="100" cy="425" r="12" />

  <!-- Right -->
    <text x="540" y="195">I</text>
    <circle cx="500" cy="175" r="12" />

    <!-- Active (middle) Circle-->
    <text x="540" y="320" class="active">U</text>
    <circle cx="500" cy="300" r="12" class="active"/>

    <!-- Active (end) Circle -->
    <text x="540" y="445">O</text>
    <circle cx="500" cy="425" r="12"/>

  <!-- Bottom -->
    <!-- Used Circle -->
    <text x="175" y="565" class="active">R</text>
    <circle cx="175" cy="500" r="12" class="active" />

    <!-- Unused Circle-->
    <text x="300" y="565">S</text>
    <circle cx="300" cy="500" r="12"/>

    <!-- Active (middle) Circle -->
    <text x="425" y="565">P</text>
    <circle cx="425" cy="500" r="12"/>
</svg>
